# xmcd CD database file
#
# Track frame offsets:
#	150
#	16612
#	35475
#
# Disc length: 769 seconds
#
# Revision: 0
# Processed by: cddbd v1.5PL3 Copyright (c) Steve Scherf et al.
# Submitted via: CDex 1.51
#
DISCID=1502ff03
DTITLE=エレキハチマキ - BLOW YOUR LIFE
DYEAR=2000
DGENRE=JPop
TTITLE0=Blow Your Life
TTITLE1=You Need A New Song
TTITLE2=Blow Your Life [3am@Jet Boy Jet Girl Mix]
EXTD=YEAR: 2000
EXTT0=
EXTT1=
EXTT2=
PLAYORDER=
